<svg width="32" height="32" xmlns="http://www.w3.org/2000/svg">

 <g>
  <title>background</title>
  <rect fill="none" id="canvas_background" height="602" width="802" y="-1" x="-1"/>
 </g>
 <g>
  <title>Layer 1</title>
  <path id="svg_1" fill="#24292E" d="m16,0c-8.84,0 -16,7.16 -16,16c0,7.08 4.58,13.06 10.94,15.18c0.8,0.14 1.1,-0.34 1.1,-0.76c0,-0.38 -0.02,-1.64 -0.02,-2.98c-4.02,0.74 -5.06,-0.98 -5.38,-1.88c-0.18,-0.46 -0.96,-1.88 -1.64,-2.26c-0.56,-0.3 -1.36,-1.04 -0.02,-1.06c1.26,-0.02 2.16,1.16 2.46,1.64c1.44,2.42 3.74,1.74 4.66,1.32c0.14,-1.04 0.56,-1.74 1.02,-2.14c-3.56,-0.4 -7.28,-1.78 -7.28,-7.9c0,-1.74 0.62,-3.18 1.64,-4.3c-0.16,-0.4 -0.72,-2.04 0.16,-4.24c0,0 1.34,-0.42 4.4,1.64c1.28,-0.36 2.64,-0.54 4,-0.54c1.36,0 2.72,0.18 4,0.54c3.06,-2.08 4.4,-1.64 4.4,-1.64c0.88,2.2 0.32,3.84 0.16,4.24c1.02,1.12 1.64,2.54 1.64,4.3c0,6.14 -3.74,7.5 -7.3,7.9c0.58,0.5 1.08,1.46 1.08,2.96c0,2.14 -0.02,3.86 -0.02,4.4c0,0.42 0.3,0.92 1.1,0.76c6.32,-2.12 10.9,-8.12 10.9,-15.18c0,-8.84 -7.16,-16 -16,-16l0,0z" clip-rule="evenodd" fill-rule="evenodd"/>
  <path d="m11.86667,15.5875c-0.26667,0 -0.26667,-0.26667 -0.53333,-0.26667c-0.26667,0 -0.28697,-0.16462 -0.53333,-0.26667c-0.34842,-0.14432 -0.53333,-0.8 -0.53333,-1.06667c0,-0.26667 0.18738,-0.94436 1.06667,-1.33333c1.0055,-0.4448 1.86667,-0.53333 2.66667,-0.53333c0.8,0 1.48954,-0.37712 1.86667,0c0.18856,0.18856 0.43128,0.55363 0.53333,0.8c0.14432,0.34842 0.45523,0.61144 0.26667,0.8c-0.18856,0.18856 -0.8,0.26667 -1.06667,0.26667c-0.26667,0 -0.53333,0 -0.8,0c-0.26667,0 -0.34477,-0.0781 -0.53333,-0.26667c-0.18856,-0.18856 0,-0.53333 -0.26667,-0.53333c-0.26667,0 0,0.53333 -0.26667,0.8c-0.26667,0.26667 -0.8,0.53333 -1.33333,0.8c-0.53333,0.26667 -0.8,0.26667 -1.06667,0.26667l0,-0.26667" id="svg_2" stroke-width="1.5" stroke="#fff" fill="#000"/>
  <path stroke="#fff" d="m12.13971,14.94003c0.07353,0 0.07353,0.38138 0.14706,0.38138c0.07353,0 0.14871,0.13979 0.36765,0c0.3009,-0.19213 0.73138,-1.33434 1.25,-1.52551c0.44007,-0.16221 0.64023,-0.1117 0.58823,-0.38138c-0.05199,-0.26968 -0.44274,-0.26067 -1.25,0c-0.59167,0.19106 -1.25,0.76276 -1.76471,0.76276c-0.36765,0 -0.54284,-0.02903 -0.51471,-0.38138c0.03979,-0.49829 0.23615,-1.03511 0.44118,-1.9069c0.08042,-0.34194 0.19905,-0.26968 0.14706,0c-0.05199,0.26968 -0.25432,0.64584 -0.29412,1.14413c-0.02814,0.35235 0.14539,0.34498 0.44118,0c0.36579,-0.42664 0.88235,-0.76276 1.32353,-1.14413c0.44118,-0.38138 0.62803,-0.49829 0.58823,0c-0.02814,0.35235 0.07353,0.38138 0.22059,0.38138c0.29412,0 0.66177,0 1.02941,0c0.36765,0 0.66176,0 0.73529,0c0.07353,0 0.07353,0.38138 0.14706,0.38138l0.07353,0l0.14706,0l0.14706,0" id="svg_3" stroke-width="1.5" fill="none"/>
 </g>
</svg>